<svg width="46" height="60" viewBox="0 0 46 60" fill="none" xmlns="http://www.w3.org/2000/svg">
<mask id="mask0_405_2585" style="mask-type:luminance" maskUnits="userSpaceOnUse" x="0" y="0" width="46" height="60">
<path fill-rule="evenodd" clip-rule="evenodd" d="M0.582591 15.6813C0.587162 15.6648 0.591713 15.6483 0.598354 15.632C0.643869 15.5258 0.706648 15.4279 0.784075 15.3416L14.7126 0.341622C14.7168 0.336391 14.7283 0.329067 14.7283 0.329067C14.7503 0.30971 14.7728 0.291923 14.7958 0.275181C14.8685 0.209787 14.9502 0.154855 15.0381 0.112479C15.0731 0.0967843 15.1087 0.0831822 15.1453 0.0716727C15.2395 0.0376674 15.3378 0.0177873 15.4377 0.013079C15.4479 0.0125842 15.4573 0.00963291 15.4668 0.00665892L15.4668 0.0066584C15.4774 0.00334322 15.4881 0 15.5 0H44.4286C45.0203 0 45.5 0.479736 45.5 1.07143V58.9286C45.5 59.5203 45.0203 60 44.4286 60H1.57143C0.979736 60 0.5 59.5203 0.5 58.9286V16.0714C0.5 16.0606 0.503084 16.0505 0.506129 16.0406C0.509099 16.0309 0.512033 16.0213 0.512033 16.0113C0.517787 15.9113 0.538191 15.8125 0.571673 15.7178C0.575878 15.7056 0.57924 15.6934 0.582591 15.6813ZM14.4286 15V3.80022L4.02818 15H14.4286ZM2.64286 17.1429H15.5C16.0917 17.1429 16.5714 16.6631 16.5714 16.0714V2.14286H43.3571V57.8571H2.64286V17.1429ZM18.5416 27.3345C18.4899 27.4255 18.4239 27.5082 18.347 27.5799C18.3404 27.5857 18.3358 27.5929 18.3311 27.6C18.3258 27.6081 18.3206 27.6161 18.3125 27.6222L12.9554 31.908C12.4934 32.2778 11.8185 32.203 11.4492 31.7411C11.0793 31.2791 11.1541 30.6042 11.6161 30.2349L14.5881 27.8571H11.2143C10.6226 27.8571 10.1429 27.3774 10.1429 26.7857C10.1429 26.194 10.6226 25.7143 11.2143 25.7143H14.5881L11.6161 23.3355C11.1541 22.9661 11.0793 22.2913 11.4492 21.8293C11.8185 21.3674 12.4934 21.2925 12.9554 21.6619L18.3125 25.9476C18.3205 25.9539 18.3257 25.962 18.3309 25.9701C18.3356 25.9773 18.3403 25.9846 18.347 25.9905C18.4239 26.0627 18.4899 26.1454 18.5416 26.2369C18.5683 26.2709 18.5924 26.307 18.6133 26.3442C18.7478 26.623 18.7478 26.9484 18.6133 27.2273C18.5919 27.2644 18.5678 27.3 18.5416 27.3345ZM34.7857 25.7143H31.4119L34.3839 23.3365C34.8459 22.9672 34.9207 22.2923 34.5508 21.8304C34.1815 21.3684 33.5066 21.2936 33.0446 21.6635L27.6875 25.9492C27.6794 25.9553 27.6742 25.9634 27.6689 25.9714C27.6642 25.9785 27.6596 25.9857 27.653 25.9916C27.5761 26.0632 27.5101 26.1459 27.4584 26.2369C27.4322 26.2714 27.4081 26.307 27.3867 26.3442C27.2522 26.623 27.2522 26.9484 27.3867 27.2273C27.4081 27.2644 27.4322 27.3 27.4584 27.3345C27.5101 27.4255 27.5761 27.5082 27.653 27.5799C27.6596 27.5857 27.6642 27.5929 27.6689 27.6C27.6742 27.6081 27.6794 27.6161 27.6875 27.6222L33.0446 31.908C33.5066 32.2778 34.1815 32.203 34.5508 31.7411C34.9207 31.2791 34.8459 30.6042 34.3839 30.2349L31.4119 27.8571H34.7857C35.3774 27.8571 35.8571 27.3774 35.8571 26.7857C35.8571 26.194 35.3774 25.7143 34.7857 25.7143ZM14.0587 41.3839C15.5241 37.7339 19.0669 35.3456 23 35.3571C26.9331 35.3456 30.4759 37.7339 31.9413 41.3839C32.0878 41.7392 32.0323 42.1462 31.7969 42.4496C31.561 42.7536 31.1801 42.9074 30.7998 42.853C30.4189 42.7991 30.0966 42.5448 29.9549 42.1875C28.8097 39.352 26.0579 37.4953 23 37.4953C19.9421 37.4953 17.1903 39.352 16.0451 42.1875C15.8207 42.7321 15.1992 42.9932 14.653 42.7724C14.1074 42.5516 13.8416 41.9312 14.0587 41.3839Z" fill="white"/>
</mask>
<g mask="url(#mask0_405_2585)">
<rect x="-8.98975" y="-7.13623" width="68" height="70" fill="#00C5CA"/>
</g>
</svg>
