<svg width="60" height="60" viewBox="0 0 60 60" fill="none" xmlns="http://www.w3.org/2000/svg">
<mask id="mask0_405_1925" style="mask-type:luminance" maskUnits="userSpaceOnUse" x="0" y="0" width="60" height="60">
<path fill-rule="evenodd" clip-rule="evenodd" d="M29.9781 0.253418C13.5732 0.253418 0.226074 13.6006 0.226074 30.0055C0.226074 46.4104 13.5732 59.7575 29.9781 59.7575C46.383 59.7575 59.7302 46.4104 59.7302 30.0055C59.7302 13.6006 46.383 0.253418 29.9781 0.253418ZM29.9781 56.7848C15.2113 56.7848 3.19885 44.7723 3.19885 30.0055C3.19885 15.2387 15.2113 3.2262 29.9781 3.2262C44.745 3.2262 56.7574 15.2387 56.7574 30.0055C56.7574 44.7723 44.745 56.7848 29.9781 56.7848ZM26.3623 34.1067L37.768 22.7616C38.3505 22.1792 39.2848 22.1792 39.8672 22.7616C40.4375 23.344 40.4375 24.2783 39.855 24.8608L27.3936 37.2494C27.1024 37.5406 26.7263 37.6862 26.3501 37.6862C25.9619 37.6862 25.5857 37.5406 25.2945 37.2494L20.0891 32.0076C19.5188 31.4251 19.5188 30.4787 20.1012 29.9084C20.6837 29.3381 21.618 29.3381 22.2004 29.9205L26.3623 34.1067Z" fill="white"/>
</mask>
<g mask="url(#mask0_405_1925)">
<rect x="-4.46289" y="-11.9004" width="72.3967" height="76.3636" fill="#00C5CA"/>
</g>
</svg>
