<?xml version="1.0" standalone="no"?>
<!DOCTYPE svg PUBLIC "-//W3C//DTD SVG 20010904//EN"
 "http://www.w3.org/TR/2001/REC-SVG-20010904/DTD/svg10.dtd">
<svg version="1.0" xmlns="http://www.w3.org/2000/svg"
 width="1024.000000pt" height="1024.000000pt" viewBox="0 0 1024.000000 1024.000000"
 preserveAspectRatio="xMidYMid meet">

<g transform="translate(0.000000,1024.000000) scale(0.100000,-0.100000)"
fill="#000000" stroke="none">
<path d="M0 5120 l0 -5120 5120 0 5120 0 0 5120 0 5120 -5120 0 -5120 0 0
-5120z m7018 3741 c20 -10 47 -30 58 -43 52 -56 84 -138 50 -125 -8 3 -45 -5
-83 -18 -37 -14 -74 -25 -80 -25 -7 0 -37 16 -67 35 -30 19 -74 37 -98 41 -23
4 -52 12 -63 17 -11 6 -24 10 -28 9 -26 -8 75 94 108 109 55 25 154 25 203 0z
m-1673 -1 c227 -22 400 -62 610 -144 325 -128 598 -310 853 -569 64 -65 111
-121 107 -127 -3 -6 -3 -9 2 -8 21 7 198 -225 187 -244 -4 -7 -2 -8 4 -4 14 8
36 -30 26 -46 -4 -6 -3 -8 4 -5 6 4 27 -25 52 -70 35 -65 40 -81 31 -100 -6
-13 -11 -36 -12 -51 0 -15 -3 -21 -6 -14 -4 10 -9 8 -20 -8 -11 -15 -21 -19
-36 -14 -12 4 -27 7 -34 7 -7 0 -10 4 -7 8 2 5 16 4 29 -1 16 -6 25 -6 25 0 0
6 -8 10 -17 11 -104 5 -141 18 -126 42 3 5 1 7 -4 4 -15 -9 -35 17 -37 47 0
13 -3 24 -6 23 -3 -1 -7 3 -9 8 -2 6 -11 15 -21 22 -10 7 -24 27 -33 45 -34
71 -186 249 -328 383 -251 239 -583 423 -924 511 -117 30 -130 33 -170 38 -40
5 -76 -6 -62 -20 3 -4 13 -1 21 5 10 8 16 9 21 1 3 -5 -1 -10 -9 -10 -19 0
-22 -20 -3 -20 17 -1 57 -67 51 -85 -4 -8 -1 -15 5 -15 6 0 11 -12 11 -26 0
-24 3 -25 42 -23 26 2 43 -1 46 -9 2 -6 10 -12 18 -12 8 0 13 -4 11 -8 -5 -18
79 -88 121 -100 23 -7 42 -17 42 -22 0 -6 7 -10 15 -10 9 0 16 -10 16 -27 2
-24 2 -25 6 -5 5 27 14 28 31 2 7 -11 23 -20 36 -20 12 0 33 -9 46 -20 l23
-20 -26 0 c-25 0 -27 -3 -27 -40 0 -22 -5 -40 -11 -40 -7 0 -10 -17 -7 -45 2
-25 -1 -47 -7 -48 -5 -2 10 -4 35 -4 41 0 42 1 18 9 -24 8 -28 15 -28 49 0 32
3 39 20 39 17 0 20 -7 20 -40 0 -33 4 -42 23 -50 18 -7 18 -9 4 -9 -10 -1 -16
-5 -13 -10 4 -5 -3 -7 -14 -4 -34 9 -22 -6 13 -16 31 -9 31 -9 5 -10 -15 -1
-29 3 -32 8 -3 5 -17 12 -31 15 -14 4 -49 17 -78 30 -28 13 -65 27 -81 31 -24
5 -27 8 -15 17 11 8 10 9 -5 4 -10 -4 -64 11 -125 34 -199 75 -244 83 -451 84
-156 0 -203 -3 -300 -23 -408 -83 -799 -332 -1065 -676 -38 -49 -74 -93 -79
-96 -4 -4 -30 -10 -56 -13 -55 -7 -174 -42 -273 -80 -38 -14 -65 -20 -61 -13
52 90 224 315 342 447 l50 54 -37 24 c-20 13 -44 37 -54 54 -33 57 -25 74 78
175 52 51 92 93 87 93 -4 0 -14 -6 -22 -12 -11 -10 -11 -9 0 7 8 11 20 23 25
28 6 4 5 10 -4 16 -11 7 -9 10 8 16 l22 7 -23 20 -23 21 23 -6 c12 -3 20 -1
16 4 -3 5 5 19 18 30 33 28 -85 -31 -184 -92 -282 -174 -616 -485 -823 -764
-108 -145 -108 -146 -94 -194 18 -60 -12 -116 -85 -161 -32 -19 -88 -60 -125
-91 -77 -65 -227 -234 -225 -255 1 -8 -2 -12 -6 -9 -7 4 -76 -99 -109 -162
-14 -27 2 -39 20 -16 10 12 10 14 2 9 -15 -9 -17 3 -3 24 9 13 10 13 10 0 0
-13 2 -13 9 0 6 8 7 19 4 25 -4 5 -2 6 3 2 5 -5 9 -16 10 -25 3 -47 5 -52 24
-52 23 0 60 -33 60 -55 0 -8 7 -15 15 -15 8 0 15 -4 15 -8 0 -5 15 -7 33 -5
17 2 26 0 20 -3 -7 -3 -13 -15 -14 -27 0 -21 -1 -21 -10 -2 -7 16 -8 13 -4
-11 3 -16 -1 -57 -10 -90 -8 -32 -22 -120 -30 -194 -16 -152 -37 -222 -90
-305 -71 -111 -210 -215 -288 -215 l-30 0 7 -222 c3 -123 9 -249 12 -280 6
-54 5 -57 -15 -51 -11 3 -21 9 -21 13 0 4 -11 12 -25 18 -70 32 -165 -9 -160
-68 3 -41 18 -111 25 -115 4 -3 10 4 13 15 4 15 14 20 41 20 30 0 36 -4 36
-21 0 -23 36 -58 61 -59 19 0 31 -47 23 -89 -5 -23 -2 -29 15 -34 12 -3 21 -1
21 3 0 12 40 -1 41 -14 1 -6 1 -33 0 -61 0 -33 2 -44 7 -31 8 17 10 16 20 -10
7 -16 23 -65 36 -109 37 -121 69 -208 83 -223 7 -7 13 -22 13 -32 0 -10 3 -20
8 -22 4 -1 6 -108 4 -236 l-3 -234 -61 99 c-74 118 -188 353 -235 483 -40 111
-105 341 -98 348 3 3 1 10 -4 16 -16 19 -61 275 -82 466 -19 166 -16 554 5
714 38 289 106 518 227 761 107 216 255 412 400 531 46 37 87 84 126 142 31
48 61 89 65 90 4 2 8 9 8 15 0 7 23 41 50 77 28 36 61 81 75 101 48 73 304
356 416 461 409 382 891 651 1395 777 281 71 610 97 889 71z m-1856 -77 c11
-10 24 -32 27 -50 5 -27 1 -37 -24 -63 -18 -18 -41 -30 -57 -30 -38 0 -75 41
-75 84 0 63 80 99 129 59z m4077 -141 c24 -16 26 -50 2 -66 -20 -14 -23 -14
-40 1 -38 34 -4 93 38 65z m-2001 -72 l20 -9 -20 0 c-11 0 -27 4 -35 9 -13 9
-13 10 0 9 8 0 24 -4 35 -9z m-2722 -111 c46 -21 70 -87 46 -131 -6 -11 -89
-98 -184 -192 -95 -94 -196 -202 -225 -239 -51 -66 -91 -97 -126 -97 -9 0 -31
15 -50 34 -28 28 -34 41 -34 77 0 38 9 54 72 138 87 114 312 349 376 391 48
32 85 37 125 19z m5177 -99 c19 -10 45 -29 57 -42 53 -56 79 -168 51 -221 -6
-12 -14 -29 -18 -37 -4 -8 -10 -14 -14 -12 -3 1 -19 2 -35 2 -23 0 -28 4 -24
18 4 16 -4 20 -49 28 -49 8 -55 13 -85 59 -39 59 -92 93 -150 96 -48 3 -51 8
-26 45 54 82 196 113 293 64z m-579 -69 c46 -46 34 -112 -25 -136 -71 -30
-143 39 -116 110 24 62 92 75 141 26z m-3641 -115 c0 -7 -40 -14 -44 -7 -3 4
6 8 20 9 13 1 24 0 24 -2z m2273 -268 c-2 -5 4 -8 14 -9 10 0 13 -3 6 -5 -6
-3 -24 1 -40 9 l-28 15 27 -1 c14 -1 24 -5 21 -9z m2521 -68 c61 -23 134 -94
162 -156 23 -53 23 -156 0 -222 -27 -80 -98 -152 -177 -180 -72 -25 -101 -27
-166 -11 -35 9 -42 14 -29 21 9 5 16 14 16 20 0 6 -10 4 -24 -5 -13 -9 -27
-13 -30 -9 -4 3 4 12 16 19 22 13 22 14 1 8 -51 -14 -62 -13 -83 10 l-23 24
38 -2 c25 -1 40 3 43 12 3 9 0 11 -9 6 -11 -6 -11 -5 -2 5 8 9 8 21 1 44 -14
41 -13 41 -39 15 l-23 -23 -10 23 c-11 26 7 44 37 37 11 -3 16 -2 13 1 -3 3 1
12 9 20 22 21 18 31 -10 25 -16 -3 -25 0 -25 8 0 9 -14 11 -50 7 -58 -6 -66 6
-55 76 16 94 95 195 178 229 60 24 172 23 241 -2z m-3237 -66 c-3 -3 -12 -4
-19 -1 -8 3 -5 6 6 6 11 1 17 -2 13 -5z m313 -112 c299 -120 483 -196 1065
-437 209 -87 450 -184 535 -215 420 -157 549 -218 690 -324 95 -71 206 -184
276 -279 263 -357 342 -834 208 -1247 -83 -252 -229 -465 -418 -608 -73 -55
-106 -65 -106 -33 0 12 -12 25 -30 33 -17 7 -33 20 -35 30 -3 9 -12 19 -20 22
-8 3 -15 15 -15 27 0 19 -4 21 -32 15 -23 -4 -28 -3 -18 3 8 6 12 12 9 16 -3
3 -36 -9 -73 -26 -76 -36 -150 -50 -141 -28 3 9 -6 21 -25 32 -36 22 -55 56
-64 117 l-6 45 72 37 c40 21 67 38 61 38 -7 0 -13 9 -13 21 0 12 4 17 11 13 8
-4 9 1 4 17 -7 21 -6 22 8 11 10 -9 17 -10 22 -2 3 5 3 10 -2 10 -11 0 -4 162
8 177 7 7 6 13 -1 18 -5 3 -10 -1 -10 -11 0 -11 -6 -15 -18 -12 -15 4 -18 0
-15 -16 5 -31 -13 -54 -29 -38 -9 9 -9 12 1 12 14 0 11 41 -4 53 -5 4 3 5 18
3 26 -4 28 -3 24 17 -7 26 43 104 63 99 8 -2 10 3 6 13 -3 9 3 33 13 53 10 20
24 63 30 94 13 59 13 310 0 303 -9 -6 -39 93 -33 110 4 10 0 15 -11 15 -11 0
-15 5 -12 14 4 10 1 13 -9 9 -10 -4 -12 0 -8 11 4 11 2 16 -6 14 -7 -2 -15 3
-18 11 -2 8 0 11 6 7 6 -3 13 -2 16 3 3 4 -2 8 -12 7 -19 -1 -64 39 -55 48 4
3 0 6 -7 6 -7 0 -25 13 -40 29 -21 21 -25 32 -17 40 8 8 8 14 -1 23 -9 9 -3
19 24 45 39 36 45 39 42 21 -5 -21 45 -10 68 15 19 20 57 47 68 47 3 0 3 -11
0 -25 -4 -21 0 -25 18 -25 15 0 27 -9 33 -22 6 -13 15 -23 20 -23 6 0 17 -4
25 -10 13 -8 13 -6 1 11 -21 28 -72 74 -82 74 -5 0 -8 3 -7 8 4 10 -35 51 -64
68 -107 62 -327 162 -838 380 -134 58 -249 109 -255 113 -5 5 -28 14 -50 21
-22 7 -44 16 -49 21 -6 5 -20 9 -32 9 -17 0 -145 52 -163 66 -2 2 10 19 27 38
17 20 36 53 43 74 10 33 8 44 -9 78 -32 62 -40 67 -284 170 -338 143 -422 180
-548 242 -74 36 -139 64 -143 64 -4 -1 0 9 9 22 8 14 15 27 14 31 0 3 2 27 6
54 6 44 10 50 33 54 17 3 11 5 -16 6 -24 0 -43 6 -43 11 0 6 6 10 13 10 9 0 8
3 -2 9 -11 7 -8 11 10 16 23 8 23 8 4 16 -13 5 -15 8 -5 8 13 1 13 3 0 12 -13
10 -13 10 0 6 8 -3 139 -54 290 -115z m1593 -154 c9 -21 12 -38 7 -38 -5 0
-14 15 -19 33 -9 32 -9 32 -10 4 -1 -16 -5 -26 -11 -22 -14 8 -13 38 2 53 14
14 12 16 31 -30z m-5092 -57 c44 -44 43 -102 -2 -143 -83 -77 -210 22 -155
121 32 57 111 68 157 22z m5032 -15 c4 -10 1 -13 -9 -9 -15 6 -19 23 -5 23 5
0 11 -7 14 -14z m1036 -39 c1 -5 -6 -1 -15 7 -8 9 -12 21 -8 28 5 8 10 6 15
-8 4 -10 8 -23 8 -27z m765 -287 c90 -34 41 -176 -54 -155 -68 15 -80 122 -16
153 27 14 39 14 70 2z m-4487 -124 c371 -66 698 -279 906 -592 159 -239 237
-497 237 -783 0 -299 -77 -559 -232 -789 -103 -152 -301 -332 -357 -323 -7 1
-10 -2 -7 -7 10 -16 -23 -37 -36 -24 -9 9 -8 12 3 12 8 0 15 9 16 20 1 13 -4
20 -16 20 -20 0 -43 22 -39 37 5 15 -55 73 -76 73 -16 0 -16 2 -6 16 10 11 0
10 -41 -7 -139 -56 -142 -57 -166 -46 -13 6 -23 14 -23 19 0 4 -9 8 -21 8 -11
0 -18 4 -14 9 3 5 -10 25 -30 44 -19 19 -35 39 -35 45 0 6 -11 19 -24 28 -20
12 -40 14 -104 9 -69 -6 -81 -5 -97 11 -18 18 -19 18 -12 1 5 -13 3 -17 -5
-14 -7 2 -12 12 -12 21 2 12 -3 15 -18 10 -14 -4 -18 -2 -14 5 4 6 2 11 -3 11
-19 0 -12 -11 48 -75 132 -142 198 -260 334 -605 164 -414 313 -725 463 -965
141 -225 260 -382 447 -589 40 -44 86 -94 104 -112 18 -17 30 -33 28 -35 -2
-2 24 -5 58 -7 34 -2 71 -5 82 -8 16 -4 17 -3 5 5 -13 9 -13 11 1 11 8 0 20
-5 27 -12 9 -9 15 -9 24 0 9 9 7 12 -10 12 -26 0 -27 6 -7 26 8 9 15 12 15 7
0 -4 18 -28 41 -53 26 -29 49 -45 67 -46 15 -1 29 -3 31 -3 2 -1 -2 -8 -9 -16
-7 -8 -28 -15 -46 -15 -32 0 -34 -2 -34 -34 0 -19 -3 -42 -7 -52 -5 -14 -2
-16 20 -10 31 7 37 -13 11 -35 -12 -10 -19 -10 -32 -1 -10 6 -31 18 -48 26
-17 8 -34 18 -38 24 -18 29 -186 -27 -186 -63 0 -16 -3 -14 -16 10 -22 42 -32
51 -45 38 -8 -8 -6 -13 8 -17 10 -3 23 -16 28 -28 9 -20 16 -22 68 -19 l57 2
0 -40 c0 -31 4 -41 21 -46 11 -4 18 -9 16 -11 -9 -9 -57 20 -58 35 -1 13 -2
13 -6 -1 -2 -10 -10 -18 -16 -18 -7 0 -6 -4 3 -9 8 -6 18 -7 22 -5 4 3 8 0 8
-5 0 -6 8 -11 18 -12 11 0 13 -2 4 -6 -10 -4 -8 -9 7 -20 12 -8 26 -11 33 -7
7 4 8 3 4 -4 -4 -7 3 -14 19 -18 14 -3 24 -9 21 -12 -3 -2 6 -13 20 -24 17
-14 28 -17 37 -10 10 8 12 2 9 -29 -4 -35 0 -44 31 -72 37 -35 244 -147 271
-147 9 0 28 12 41 26 l24 26 63 -30 c139 -66 336 -147 406 -167 48 -14 51 -74
5 -117 -45 -42 -100 -32 -338 64 -302 122 -382 160 -634 296 -147 79 -188 130
-182 224 1 25 41 58 68 58 39 0 21 45 -20 49 -8 1 -61 50 -223 208 -89 86
-210 222 -325 361 -53 65 -275 411 -293 457 -6 18 -8 17 -22 -11 -28 -57 -129
-134 -176 -134 -9 0 -20 -4 -23 -10 -10 -16 -25 -12 -19 5 4 9 -1 18 -11 21
-9 4 -14 13 -11 21 5 12 -81 203 -91 203 -2 0 -1 -5 2 -11 4 -6 -2 -17 -13
-24 -16 -12 -20 -29 -24 -117 -3 -57 -7 -110 -9 -118 -3 -9 5 -16 19 -18 14
-2 22 -10 22 -24 0 -18 -4 -19 -40 -13 -37 6 -40 5 -40 -16 0 -21 -3 -19 -26
14 -14 21 -23 45 -20 53 3 8 2 12 -4 9 -5 -3 -16 8 -25 25 -8 16 -12 30 -8 30
5 0 3 4 -3 8 -19 12 -45 72 -39 91 3 9 -2 26 -11 37 -14 18 -15 18 -4 -4 7
-13 9 -26 6 -29 -10 -11 -37 68 -31 90 5 16 4 18 -3 8 -8 -11 -13 -7 -26 18
-9 17 -14 37 -10 44 4 7 3 8 -1 4 -11 -10 -67 111 -58 126 3 5 2 7 -4 4 -6 -4
-16 13 -24 36 -7 23 -16 44 -19 47 -4 3 -35 73 -69 155 -35 83 -78 185 -96
228 l-34 77 27 17 c15 9 59 50 98 90 l71 73 -39 67 c-60 102 -180 236 -229
255 -13 5 -19 17 -19 40 0 44 -30 99 -67 120 -40 24 -290 43 -358 28 -59 -13
-120 -44 -159 -81 -17 -16 -34 -29 -38 -29 -5 0 -8 194 -8 430 0 260 -4 430
-9 430 -5 0 -12 12 -14 28 -3 21 -4 18 -6 -13 -2 -32 -4 -36 -11 -20 -7 16 -9
11 -9 -21 -1 -24 -9 -51 -19 -64 -17 -21 -18 -21 -35 -2 -10 10 -21 39 -25 63
l-8 44 -7 -64 c-8 -74 -11 -79 -33 -61 -13 12 -17 11 -25 -1 -6 -9 -9 4 -10
41 0 40 -3 50 -9 35 -5 -11 -9 -382 -9 -825 -1 -443 -4 -930 -8 -1084 -6 -276
-6 -279 -30 -302 -19 -19 -34 -24 -79 -24 -48 0 -59 4 -91 34 -31 28 -38 42
-44 92 -4 32 -8 546 -8 1141 l-1 1081 29 7 c70 15 98 41 559 514 l150 155 7
-280 c4 -153 5 -400 1 -549 -3 -148 -4 -291 0 -316 l6 -47 446 -1 c378 -1 457
1 519 15 40 9 76 15 79 14 4 -1 10 2 13 7 11 15 82 43 93 37 6 -4 8 -3 5 3 -4
6 9 19 29 29 19 10 42 29 50 42 14 21 42 33 29 12 -3 -5 -4 -10 -1 -10 3 0 10
10 17 21 9 17 8 20 -3 14 -7 -4 -3 3 9 16 12 13 31 33 41 45 11 12 30 42 42
68 13 25 28 46 33 46 5 0 7 7 3 15 -4 12 0 14 18 11 23 -4 24 -2 15 27 -5 18
-9 48 -8 67 0 29 2 32 10 15 7 -16 8 -14 4 10 -2 17 -6 83 -7 147 l-3 117 43
40 c23 22 42 44 42 49 0 5 12 15 26 22 22 12 27 12 35 0 8 -11 9 -10 4 7 -7
24 13 63 32 63 7 0 13 5 13 10 0 6 -4 10 -10 10 -5 0 -10 5 -10 11 0 5 5 7 10
4 6 -3 10 -2 10 4 0 5 -4 13 -10 16 -5 3 -10 13 -10 22 0 22 -110 170 -171
230 -77 75 -133 116 -218 158 -123 63 -177 75 -356 81 -88 3 -171 9 -185 14
-14 5 -37 11 -52 14 -27 6 -40 36 -16 36 9 0 9 3 0 12 -7 7 -12 29 -12 50 0
21 -4 38 -10 38 -25 0 -7 30 25 41 36 13 47 29 20 29 -9 0 -18 7 -21 15 -4 8
-15 15 -25 15 -10 0 -19 5 -19 12 0 6 -3 9 -6 6 -8 -9 -70 63 -80 92 -10 32
-11 35 -13 63 -2 20 -3 21 -10 3 -11 -28 -23 -3 -13 26 16 42 7 46 -91 41 -66
-3 -88 -2 -77 6 25 17 706 14 807 -3z m-844 -3 c-7 -2 -21 -2 -30 0 -10 3 -4
5 12 5 17 0 24 -2 18 -5z m-1899 -22 c14 -15 15 -24 7 -39 -23 -44 -81 -35
-81 12 0 45 44 61 74 27z m1806 9 c-34 -11 -60 -11 -35 0 11 5 29 8 40 8 16 0
15 -2 -5 -8z m266 -74 c-8 -15 -17 -23 -20 -17 -4 5 1 19 11 30 22 27 27 21 9
-13z m54 -56 c0 -13 -1 -13 -10 0 -5 8 -10 22 -10 30 0 13 1 13 10 0 5 -8 10
-22 10 -30z m-40 -104 c0 -3 -4 -8 -10 -11 -5 -3 -10 -1 -10 4 0 6 5 11 10 11
6 0 10 -2 10 -4z m95 -6 c-3 -5 -12 -10 -18 -10 -7 0 -6 4 3 10 19 12 23 12
15 0z m5189 -21 c31 -36 36 -85 9 -74 -15 5 -16 4 -5 -6 6 -7 12 -19 12 -27 0
-12 -3 -12 -15 -2 -13 11 -14 10 -10 -3 4 -8 2 -18 -4 -22 -7 -3 -11 2 -11 14
0 11 -6 24 -14 28 -7 4 -18 18 -24 30 -9 15 -18 20 -33 16 -19 -5 -21 -3 -17
15 7 24 -16 32 -25 10 -4 -10 -6 -10 -6 0 -2 25 38 52 78 52 32 0 44 -6 65
-31z m-1634 -659 c0 -5 -4 -10 -10 -10 -5 0 -10 5 -10 10 0 6 5 10 10 10 6 0
10 -4 10 -10z m-411 -231 l121 -51 0 -896 c0 -935 -3 -1009 -45 -1173 -46
-182 -142 -385 -252 -534 -70 -94 -269 -299 -462 -476 -63 -57 -122 -111 -131
-120 -9 -9 -25 -14 -36 -13 -23 4 -51 -12 -41 -23 5 -4 12 -1 16 6 5 8 11 9
15 3 7 -11 -31 -48 -41 -39 -3 4 -1 7 7 7 9 0 10 3 1 14 -6 8 -10 19 -9 25 2
6 -15 21 -37 34 -22 12 -47 30 -56 40 -9 9 -25 17 -35 17 -14 0 -11 4 11 16
41 21 42 24 4 20 -19 -2 -26 -1 -16 1 9 2 17 11 17 20 0 13 -3 13 -15 3 -9 -7
-18 -11 -21 -8 -3 3 66 72 153 154 216 203 383 371 383 387 0 6 8 17 18 24 14
8 17 20 14 47 -3 29 -7 34 -17 26 -16 -13 -59 5 -50 20 3 5 -7 10 -22 12 -14
2 -29 9 -31 17 -3 8 0 11 7 7 7 -5 11 3 11 23 0 37 -16 39 -72 13 -43 -20
-136 -100 -378 -327 -41 -39 -84 -77 -94 -85 -18 -13 -19 -13 -13 2 5 15 3 15
-30 2 -40 -17 -43 -16 -52 26 -3 17 -9 31 -14 30 -4 0 -21 7 -37 15 -29 15
-40 35 -20 35 14 0 12 13 -4 35 -14 19 -15 19 -35 1 -16 -15 -18 -21 -9 -28 9
-5 10 -8 1 -8 -29 0 -21 24 19 61 264 247 520 490 615 584 l102 100 4 585 c2
322 7 592 10 600 13 36 17 70 7 70 -39 0 62 118 105 122 11 0 27 1 35 2 8 1
16 9 18 19 3 14 -4 17 -35 18 l-38 2 40 6 c36 5 41 9 46 41 l6 35 2 -33 c0
-18 5 -31 10 -28 13 9 21 -47 21 -154 0 -141 12 -310 22 -310 4 0 8 9 8 20 0
13 7 20 19 20 10 0 24 7 31 15 7 8 16 15 21 15 5 0 9 -7 9 -15 0 -8 5 -15 10
-15 6 0 10 7 10 15 0 27 14 16 34 -25 11 -22 21 -39 23 -37 2 2 3 233 3 514 0
446 3 523 16 523 2 0 57 -23 123 -51z m-2768 -12 c58 -39 59 -115 3 -168 l-26
-24 -291 -1 c-266 0 -274 0 -97 6 187 5 190 6 75 10 l-120 4 110 6 c75 4 94 7
60 10 l-50 3 43 4 c25 3 42 9 42 17 0 7 12 18 26 24 14 7 22 17 19 22 -4 6 -3
9 2 8 4 -2 9 1 10 5 1 5 9 14 18 21 15 11 14 12 -7 12 -75 0 -109 5 -103 14 3
6 27 11 53 11 46 2 46 2 12 9 -28 6 -17 8 50 11 47 2 -25 6 -160 9 l-245 6
275 0 c248 -1 278 -3 301 -19z m4899 -29 c12 -19 16 -77 18 -317 l3 -293 -58
4 c-32 3 -65 7 -73 9 -10 3 -14 -2 -12 -13 1 -9 -2 -20 -8 -23 -8 -5 -9 13 -4
64 4 48 3 71 -4 71 -6 0 -13 10 -15 23 -3 12 -6 -16 -6 -63 -1 -47 -4 -187 -7
-313 l-6 -227 -30 -22 c-36 -25 -90 -33 -119 -17 -11 6 -18 13 -16 16 3 2 15
0 26 -7 17 -9 25 -8 38 5 9 9 24 14 35 12 10 -3 16 -1 13 3 -3 5 -19 8 -35 8
-16 -1 -27 -5 -24 -10 3 -4 -2 -8 -10 -8 -9 0 -16 9 -16 20 0 15 -7 20 -26 20
-22 0 -24 -3 -19 -22 7 -22 6 -22 -12 2 -16 23 -18 52 -21 305 l-3 280 51 18
c60 21 136 71 151 99 6 11 17 17 25 14 8 -3 17 1 20 9 4 8 12 15 20 15 8 0 14
8 14 18 0 30 41 135 57 147 8 6 18 36 23 65 4 30 8 45 9 32 1 -19 3 -20 14
-10 15 14 7 74 -9 71 -5 -1 -10 7 -10 18 0 25 8 24 26 -3z m-4370 -390 c0 -19
-2 -20 -10 -8 -13 19 -13 30 0 30 6 0 10 -10 10 -22z m-1859 -141 c-13 -13
-15 1 -4 30 7 17 8 17 11 -1 2 -10 -1 -23 -7 -29z m-44 -49 c-2 -18 -4 -6 -4
27 0 33 2 48 4 33 2 -15 2 -42 0 -60z m103 72 c0 -5 -4 -10 -10 -10 -5 0 -10
5 -10 10 0 6 5 10 10 10 6 0 10 -4 10 -10z m60 -6 c0 -8 -4 -12 -10 -9 -5 3
-10 10 -10 16 0 5 5 9 10 9 6 0 10 -7 10 -16z m4477 -281 c-2 -16 -4 -5 -4 22
0 28 2 40 4 28 2 -13 2 -35 0 -50z m-5844 -58 c-7 -21 -13 -19 -13 6 0 11 4
18 10 14 5 -3 7 -12 3 -20z m174 -37 c-3 -8 -6 -5 -6 6 -1 11 2 17 5 13 3 -3
4 -12 1 -19z m52 -103 c0 -5 -4 -3 -9 5 -5 8 -9 22 -9 30 0 16 17 -16 18 -35z
m-464 -210 c31 -30 32 -54 4 -84 -27 -29 -66 -24 -92 11 -33 44 -7 95 51 97 7
1 24 -10 37 -24z m705 -394 c-5 -11 -15 -23 -22 -27 -7 -5 -8 -2 -3 7 21 37
44 55 25 20z m1198 -468 l-3 -438 -5 405 c-5 379 -4 470 6 470 2 0 3 -197 2
-437z m-27 332 c-5 -11 -12 -27 -14 -35 -8 -23 -8 51 0 79 l6 25 9 -24 c6 -15
5 -32 -1 -45z m-41 -5 c0 -5 -2 -10 -4 -10 -3 0 -8 5 -11 10 -3 6 -1 10 4 10
6 0 11 -4 11 -10z m5500 -279 c0 -9 -7 -3 -15 13 -19 36 -19 47 0 22 8 -11 15
-27 15 -35z m-32 -51 c-1 -17 -5 -27 -9 -23 -7 7 -2 53 6 53 2 0 3 -14 3 -30z
m18 -31 l-15 -34 5 30 c8 44 16 62 21 49 2 -7 -3 -27 -11 -45z m-56 -9 c0 -5
-4 -10 -10 -10 -5 0 -10 5 -10 10 0 6 5 10 10 10 6 0 10 -4 10 -10z m26 -62
c-31 -74 -88 -188 -96 -193 -4 -3 0 12 10 32 75 158 92 193 96 193 2 0 -2 -15
-10 -32z m-78 -113 c-3 -3 -9 2 -12 12 -6 14 -5 15 5 6 7 -7 10 -15 7 -18z
m-54 -150 c-4 -8 -8 -15 -10 -15 -2 0 -4 7 -4 15 0 8 4 15 10 15 5 0 7 -7 4
-15z m-6694 -33 c0 -1 -10 -7 -22 -13 -22 -9 -21 -9 5 -6 15 3 27 0 27 -5 0
-4 14 -17 31 -27 17 -10 31 -23 31 -27 0 -5 16 -19 34 -32 19 -12 41 -36 49
-52 9 -17 20 -30 25 -30 6 0 10 -11 10 -25 0 -26 15 -34 23 -12 3 6 6 1 6 -12
1 -16 5 -21 16 -17 8 3 15 1 15 -4 0 -6 -4 -10 -10 -10 -5 0 -10 -7 -10 -16 0
-8 5 -12 10 -9 6 3 10 -2 10 -13 0 -22 -33 -56 -44 -45 -4 5 -6 2 -4 -6 5 -24
-81 -62 -143 -62 -68 -1 -115 18 -162 65 -65 65 -79 161 -39 267 17 45 78 96
112 95 16 -1 30 -2 30 -4z m6580 -17 c0 -8 -7 -15 -15 -15 -16 0 -20 12 -8 23
11 12 23 8 23 -8z m59 -44 c-23 -31 -39 -40 -39 -21 0 6 5 10 10 10 7 0 7 7 0
23 -11 21 -10 21 4 3 15 -18 16 -18 16 -2 0 9 5 14 10 11 6 -3 10 -1 10 6 0 7
3 10 6 6 3 -3 -4 -19 -17 -36z m-89 -49 c-24 -4 -55 -64 -46 -88 3 -8 1 -14
-4 -14 -14 0 -13 57 1 66 6 3 9 15 6 25 -3 12 3 25 16 34 20 14 23 14 35 -2
11 -16 10 -18 -8 -21z m-4009 -49 c18 -31 18 -32 -4 -30 -27 1 -37 14 -37 48
0 29 12 47 19 27 2 -7 12 -27 22 -45z m4049 30 c-11 -16 -35 -49 -53 -75 -18
-26 -38 -48 -44 -48 -7 0 -13 -6 -13 -14 0 -8 -11 -27 -23 -42 -18 -21 -26
-24 -32 -14 -5 8 -4 11 3 6 16 -10 26 13 12 29 -6 8 -19 11 -27 8 -11 -4 -14
-2 -9 5 8 13 48 17 44 5 -2 -5 1 -9 7 -10 14 -4 12 38 -3 65 -16 28 2 29 22 1
18 -26 50 -19 41 10 -7 22 3 51 17 51 6 0 5 -7 -2 -15 -7 -9 -9 -19 -5 -23 4
-4 10 -2 12 5 2 6 15 24 29 40 13 15 24 31 24 36 0 4 5 7 11 7 6 0 1 -12 -11
-27z m-2738 -45 c-7 -7 -12 -8 -12 -2 0 14 12 26 19 19 2 -3 -1 -11 -7 -17z
m-2415 -160 c-2 -29 -3 -8 -3 47 0 55 1 79 3 53 2 -26 2 -71 0 -100z m1149 73
c-9 -14 -46 -14 -46 -1 0 6 9 10 21 10 13 0 18 4 13 13 -5 9 -4 9 6 0 7 -6 9
-16 6 -22z m14 -42 c0 -5 -4 -9 -10 -9 -5 0 -10 7 -10 16 0 8 5 12 10 9 6 -3
10 -10 10 -16z m1410 -13 c0 -3 -4 -8 -10 -11 -5 -3 -10 -1 -10 4 0 6 5 11 10
11 6 0 10 -2 10 -4z m2396 -17 c19 -21 18 -21 -18 -55 -45 -41 -55 -42 -70 -9
-7 16 -19 25 -35 25 -12 0 -23 5 -23 10 0 13 67 13 75 0 5 -8 11 -8 19 -1 16
14 26 4 18 -17 -5 -15 -3 -15 11 -3 15 12 15 16 1 42 -17 34 -5 38 22 8z
m-3806 1 c0 -5 -4 -10 -10 -10 -5 0 -10 5 -10 10 0 6 5 10 10 10 6 0 10 -4 10
-10z m3660 -85 c0 -8 -5 -15 -11 -15 -5 0 -7 -5 -4 -10 4 -6 12 -7 18 -3 7 5
27 8 45 9 31 1 32 0 15 -19 -10 -11 -42 -43 -72 -71 -30 -28 -60 -57 -67 -63
-7 -7 -16 -13 -19 -13 -4 0 -16 -11 -27 -25 -11 -14 -25 -25 -31 -25 -7 0 -1
9 13 20 14 11 21 20 15 20 -5 0 -4 4 4 9 19 12 6 41 -19 41 -11 0 -20 7 -20
15 0 13 11 15 60 11 33 -3 60 -1 60 4 0 5 9 12 20 15 25 8 26 31 1 44 -23 13
-33 45 -18 60 16 16 37 13 37 -4z m-3817 -32 c-3 -7 -6 -13 -8 -13 -2 0 -5 6
-8 13 -3 8 1 14 8 14 7 0 11 -6 8 -14z m43 -5 c11 -31 12 -68 2 -61 -5 2 -6
14 -2 26 6 19 5 20 -9 9 -13 -11 -15 -10 -10 9 4 15 3 20 -5 15 -8 -5 -10 -2
-6 8 9 23 21 20 30 -6z m3709 -17 c3 -5 1 -12 -5 -16 -5 -3 -10 1 -10 9 0 18
6 21 15 7z m-95 -31 c0 -5 -4 -10 -10 -10 -5 0 -10 5 -10 10 0 6 5 10 10 10 6
0 10 -4 10 -10z m125 -10 c-3 -5 -13 -10 -21 -10 -8 0 -12 5 -9 10 3 6 13 10
21 10 8 0 12 -4 9 -10z m-3655 -100 c7 -13 8 -26 1 -37 -6 -11 -6 -25 0 -38
10 -19 9 -19 -5 -2 -8 11 -12 26 -9 35 5 11 3 13 -6 7 -10 -6 -11 -3 -2 14 7
12 9 26 6 31 -3 6 -4 10 -1 10 3 0 10 -9 16 -20z m3523 9 c-6 -6 -9 -18 -6
-25 3 -8 -5 -17 -19 -23 -14 -5 -32 -17 -41 -26 -10 -9 -17 -12 -17 -6 0 6 9
15 20 21 13 7 20 21 20 40 0 26 4 30 27 30 20 0 24 -3 16 -11z m-3460 -89 c-3
-12 -8 -19 -11 -16 -5 6 5 36 12 36 2 0 2 -9 -1 -20z m3425 2 c-16 -9 -28 -20
-28 -24 0 -5 -6 -8 -13 -8 -8 0 -22 -9 -33 -21 -10 -11 -28 -25 -39 -30 -19
-10 -19 -9 -2 5 10 8 17 18 16 23 -1 4 13 16 31 25 18 9 36 21 39 26 6 10 29
20 46 21 6 0 -2 -7 -17 -17z m-3399 -86 c0 -6 -3 -6 -6 2 -4 9 -8 10 -18 2
-13 -11 -13 -8 -6 29 2 9 31 -23 30 -33z m3246 15 c-19 -8 -19 -8 0 -19 19
-10 18 -11 -6 -22 -19 -8 -32 -8 -54 1 -26 11 -27 13 -10 17 11 2 29 11 40 18
11 8 26 14 35 13 10 0 9 -3 -5 -8z m485 -25 c0 -2 -8 -10 -17 -17 -16 -13 -17
-12 -4 4 13 16 21 21 21 13z m-3694 -58 c3 -4 -1 -5 -10 -4 -8 1 -18 5 -22 8
-3 4 1 5 10 4 8 -1 18 -5 22 -8z m3119 3 c3 -6 -5 -15 -17 -21 -21 -10 -22
-10 -5 3 14 11 15 16 5 20 -9 4 -9 6 -1 6 6 1 14 -3 18 -8z m-45 -35 c0 -2 -7
-7 -16 -10 -8 -3 -12 -2 -9 4 6 10 25 14 25 6z m-100 -51 c-7 -8 -17 -15 -23
-15 -6 0 -2 7 9 15 25 19 30 19 14 0z m-1619 -94 c7 11 9 11 9 -3 0 -10 -4
-18 -10 -18 -5 0 -10 -7 -10 -15 0 -8 -4 -15 -9 -15 -14 0 -19 36 -8 56 11 19
11 19 15 0 3 -15 6 -16 13 -5z m1999 -66 c61 -32 68 -99 16 -151 -19 -19 -44
-34 -55 -34 -61 0 -119 69 -105 125 8 33 59 75 90 75 14 0 38 -7 54 -15z
m-2175 -14 c3 -5 1 -12 -5 -16 -5 -3 -10 1 -10 9 0 18 6 21 15 7z m160 -59
c-3 -3 -11 0 -18 7 -9 10 -8 11 6 5 10 -3 15 -9 12 -12z m61 -7 c-22 -17 -46
-20 -46 -6 0 11 18 19 45 20 20 0 20 0 1 -14z m-2369 -321 c-3 -3 -12 -4 -19
-1 -8 3 -5 6 6 6 11 1 17 -2 13 -5z m218 -4 c3 -6 -1 -7 -9 -4 -18 7 -21 14
-7 14 6 0 13 -4 16 -10z m-132 -7 c-7 -2 -19 -2 -25 0 -7 3 -2 5 12 5 14 0 19
-2 13 -5z m3936 -23 c49 -24 90 -67 112 -115 20 -43 25 -130 9 -140 -6 -4 -8
-10 -6 -13 2 -4 -7 -12 -20 -19 -13 -6 -24 -7 -24 -3 0 4 -9 6 -20 3 -27 -7
-62 17 -84 60 -29 52 -89 87 -151 87 -27 0 -66 -4 -84 -10 -23 -6 -39 -6 -47
1 -9 7 -14 6 -17 -3 -2 -7 -2 -2 0 11 11 64 86 134 173 162 36 12 117 1 159
-21z m-4001 13 c-10 -2 -26 -2 -35 0 -10 3 -2 5 17 5 19 0 27 -2 18 -5z m58
-28 c-11 -8 -31 -14 -45 -14 l-26 2 25 5 c23 4 24 5 5 13 -15 6 -10 8 20 8 37
0 39 -1 21 -14z m-126 -5 c0 -5 -7 -10 -15 -10 -8 0 -15 5 -15 10 0 6 7 10 15
10 8 0 15 -4 15 -10z m203 -61 c23 -13 22 -29 -3 -29 -37 0 -21 -28 20 -35 30
-5 40 -11 40 -26 0 -15 7 -19 38 -19 20 0 54 4 74 9 44 10 88 3 88 -14 0 -7 9
-23 20 -36 18 -23 19 -23 20 -4 1 18 3 17 25 -7 13 -16 31 -28 40 -28 8 0 15
-8 15 -18 0 -10 11 -25 25 -32 21 -11 35 -10 99 9 72 21 75 21 95 4 12 -9 21
-22 21 -27 0 -5 8 -16 18 -25 31 -27 43 -56 29 -71 -10 -10 -8 -12 6 -7 10 4
28 2 39 -4 19 -10 17 -12 -23 -30 -23 -11 -50 -21 -58 -23 -9 -2 -29 -9 -46
-15 -16 -7 -70 -22 -120 -34 -127 -30 -421 -31 -544 -3 l-84 20 49 11 c90 20
124 58 124 136 0 76 -50 130 -135 144 -83 14 -218 63 -210 76 4 5 -1 6 -9 3
-8 -3 -25 0 -37 6 l-22 13 24 13 c13 7 20 13 16 14 -5 0 -17 -4 -27 -10 -27
-15 -105 28 -86 47 3 4 13 -2 20 -13 12 -16 16 -17 20 -4 9 22 196 27 196 5 0
-10 10 -15 30 -15 24 0 30 4 30 21 0 20 3 21 83 14 45 -4 90 -11 100 -16z
m1512 -364 c51 -50 21 -147 -49 -161 -96 -17 -154 107 -79 166 37 29 97 27
128 -5z m-755 11 c0 -3 -4 -8 -10 -11 -5 -3 -10 -1 -10 4 0 6 5 11 10 11 6 0
10 -2 10 -4z"/>
<path d="M4740 8604 c-122 -22 -120 -21 -120 -55 0 -86 66 -159 144 -159 113
0 184 85 156 188 l-11 42 -47 -1 c-26 -1 -81 -7 -122 -15z"/>
<path d="M5478 8393 c6 -2 18 -2 25 0 6 3 1 5 -13 5 -14 0 -19 -2 -12 -5z"/>
<path d="M5548 8383 c7 -3 16 -2 19 1 4 3 -2 6 -13 5 -11 0 -14 -3 -6 -6z"/>
<path d="M5590 8370 c0 -6 7 -10 15 -10 8 0 15 2 15 4 0 2 -7 6 -15 10 -8 3
-15 1 -15 -4z"/>
<path d="M3874 8274 c-18 -14 -18 -15 4 -4 12 6 22 13 22 15 0 8 -5 6 -26 -11z"/>
<path d="M5810 8029 c0 -5 5 -7 10 -4 6 3 10 8 10 11 0 2 -4 4 -10 4 -5 0 -10
-5 -10 -11z"/>
<path d="M3651 7844 c0 -11 3 -14 6 -6 3 7 2 16 -1 19 -3 4 -6 -2 -5 -13z"/>
<path d="M3680 7800 c8 -5 20 -10 25 -10 6 0 3 5 -5 10 -8 5 -19 10 -25 10 -5
0 -3 -5 5 -10z"/>
<path d="M7076 7773 c-6 -14 -5 -15 5 -6 7 7 10 15 7 18 -3 3 -9 -2 -12 -12z"/>
<path d="M7134 7689 c-4 -7 -3 -9 4 -5 5 3 13 0 15 -6 4 -9 6 -10 6 -1 1 17
-16 25 -25 12z"/>
<path d="M7185 7610 c10 -11 20 -20 22 -20 2 0 -2 9 -9 20 -7 11 -17 20 -22
20 -5 0 -1 -9 9 -20z"/>
<path d="M6990 7585 c-7 -9 -8 -15 -2 -15 5 0 12 7 16 15 3 8 4 15 2 15 -2 0
-9 -7 -16 -15z"/>
<path d="M7012 7576 c-17 -37 -15 -45 4 -18 8 12 14 27 12 33 -2 6 -9 -1 -16
-15z"/>
<path d="M7036 7509 c4 -7 44 0 44 7 0 2 -11 3 -24 2 -14 -1 -23 -5 -20 -9z"/>
<path d="M7135 7510 c-3 -5 -1 -10 4 -10 6 0 11 5 11 10 0 6 -2 10 -4 10 -3 0
-8 -4 -11 -10z"/>
<path d="M7098 7503 c7 -3 16 -2 19 1 4 3 -2 6 -13 5 -11 0 -14 -3 -6 -6z"/>
<path d="M2430 7228 c-12 -22 -12 -22 6 -6 10 10 15 20 12 24 -4 3 -12 -5 -18
-18z"/>
<path d="M1741 4814 c0 -11 3 -14 6 -6 3 7 2 16 -1 19 -3 4 -6 -2 -5 -13z"/>
<path d="M1757 4793 c-12 -12 -7 -22 8 -17 8 4 15 10 15 15 0 11 -14 12 -23 2z"/>
<path d="M1820 4791 c0 -6 5 -13 10 -16 6 -3 10 1 10 9 0 9 -4 16 -10 16 -5 0
-10 -4 -10 -9z"/>
<path d="M8086 8078 c3 -5 10 -6 15 -3 13 9 11 12 -6 12 -8 0 -12 -4 -9 -9z"/>
<path d="M8417 7609 c-9 -5 -26 -28 -37 -49 -16 -32 -18 -44 -9 -58 16 -25 71
-62 93 -62 34 0 78 32 92 66 14 33 13 38 -6 69 -11 18 -27 36 -36 39 -24 9
-77 7 -97 -5z"/>
<path d="M8345 7351 c-11 -5 -30 -7 -42 -6 -18 1 -20 -1 -11 -12 8 -10 13 -11
18 -2 5 8 9 8 11 0 3 -7 15 -3 34 9 31 20 26 25 -10 11z"/>
<path d="M7660 6125 c0 -8 5 -15 10 -15 6 0 10 7 10 15 0 8 -4 15 -10 15 -5 0
-10 -7 -10 -15z"/>
<path d="M7550 6090 c0 -5 5 -10 10 -10 6 0 10 5 10 10 0 6 -4 10 -10 10 -5 0
-10 -4 -10 -10z"/>
<path d="M7760 6080 c0 -6 7 -10 15 -10 8 0 15 -7 15 -15 0 -8 -7 -15 -15 -15
-24 0 -18 -27 8 -34 40 -11 65 -6 70 12 3 9 4 4 4 -12 -1 -16 4 -31 10 -33 9
-3 9 -10 -2 -27 -13 -20 -13 -22 4 -22 12 0 17 6 14 16 -4 13 -4 13 6 0 9 -13
11 -13 11 0 0 13 1 13 11 0 9 -13 10 -13 6 0 -2 8 -10 14 -17 12 -8 -2 -10 3
-6 13 4 11 2 14 -6 9 -8 -5 -9 -2 -5 9 3 10 3 17 -1 17 -4 0 -13 14 -21 31
-12 28 -41 47 -83 55 -10 2 -18 -1 -18 -6z m85 -50 c-3 -5 -14 -10 -23 -10
-15 0 -15 2 -2 10 20 13 33 13 25 0z"/>
<path d="M7640 6072 c0 -4 5 -13 12 -20 18 -18 28 -15 28 8 0 13 -7 20 -20 20
-11 0 -20 -4 -20 -8z"/>
<path d="M7730 5965 c0 -19 5 -35 10 -35 6 0 10 16 10 35 0 19 -4 35 -10 35
-5 0 -10 -16 -10 -35z"/>
<path d="M7840 5961 c0 -25 6 -27 13 -6 4 8 2 17 -3 20 -6 4 -10 -3 -10 -14z"/>
<path d="M7896 5923 c-3 -4 -6 -15 -6 -26 0 -14 5 -18 19 -14 12 3 22 -1 26
-11 3 -8 8 -13 11 -10 2 3 -1 17 -7 31 -12 26 -32 40 -43 30z"/>
<path d="M7810 5840 c0 -47 4 -80 10 -80 6 0 10 8 10 19 0 10 3 46 6 80 6 52
5 61 -10 61 -13 0 -16 -12 -16 -80z"/>
<path d="M7951 5835 c-1 -11 -5 -16 -9 -10 -17 23 -39 15 -46 -16 -9 -45 -8
-49 12 -49 13 0 14 2 3 9 -11 7 -10 13 7 31 l20 22 -3 -36 c-2 -20 1 -38 6
-41 5 -4 9 -21 10 -38 1 -26 3 -22 14 23 17 67 17 69 4 50 -8 -12 -10 -10 -6
10 3 14 1 34 -3 45 l-9 20 0 -20z m0 -46 c-5 -13 -10 -19 -10 -12 -1 15 10 45
15 40 3 -2 0 -15 -5 -28z"/>
<path d="M7734 5815 c-3 -13 -4 -30 -1 -37 3 -7 6 -2 6 13 1 14 6 30 13 37 9
9 9 12 0 12 -6 0 -14 -11 -18 -25z"/>
<path d="M7702 5800 c0 -14 2 -19 5 -12 2 6 2 18 0 25 -3 6 -5 1 -5 -13z"/>
<path d="M7731 5744 c0 -11 3 -14 6 -6 3 7 2 16 -1 19 -3 4 -6 -2 -5 -13z"/>
<path d="M7981 5733 c-1 -12 -3 -27 -4 -35 -2 -7 -2 -9 1 -4 2 4 8 2 13 -5 12
-19 11 18 -1 46 -8 19 -9 19 -9 -2z"/>
<path d="M7932 5700 c0 -14 2 -19 5 -12 2 6 2 18 0 25 -3 6 -5 1 -5 -13z"/>
<path d="M7741 5694 c0 -11 3 -14 6 -6 3 7 2 16 -1 19 -3 4 -6 -2 -5 -13z"/>
<path d="M8003 5540 c0 -36 2 -50 4 -32 2 17 2 47 0 65 -2 17 -4 3 -4 -33z"/>
<path d="M7761 5498 c0 -13 4 -32 8 -43 7 -17 9 -16 13 11 2 17 2 36 0 42 -7
21 -22 13 -21 -10z"/>
<path d="M7736 5415 c8 -37 14 -45 14 -19 0 10 -5 26 -10 34 -8 11 -9 7 -4
-15z"/>
<path d="M7706 5329 c-25 -56 -15 -59 12 -4 12 25 18 45 14 45 -4 0 -15 -19
-26 -41z"/>
<path d="M7725 5310 c-3 -5 -1 -10 4 -10 6 0 11 5 11 10 0 6 -2 10 -4 10 -3 0
-8 -4 -11 -10z"/>
<path d="M7640 5227 c0 -2 6 -10 14 -16 11 -9 16 -9 22 1 4 7 4 10 -1 6 -4 -4
-14 -3 -22 3 -7 6 -13 9 -13 6z"/>
<path d="M7630 5200 c0 -5 5 -10 11 -10 5 0 7 5 4 10 -3 6 -8 10 -11 10 -2 0
-4 -4 -4 -10z"/>
<path d="M7656 5182 c-2 -4 -1 -14 5 -22 7 -12 9 -10 9 8 0 23 -5 28 -14 14z"/>
<path d="M7615 5170 c-3 -5 -1 -10 4 -10 6 0 11 5 11 10 0 6 -2 10 -4 10 -3 0
-8 -4 -11 -10z"/>
<path d="M5063 5929 c-12 -12 -6 -49 9 -49 5 0 7 -8 4 -18 -4 -12 -1 -19 7
-19 15 0 16 53 1 80 -7 12 -13 14 -21 6z"/>
<path d="M5041 5890 c0 -8 4 -24 9 -35 5 -13 9 -14 9 -5 0 8 -4 24 -9 35 -5
13 -9 14 -9 5z"/>
<path d="M5122 5780 c0 -14 2 -19 5 -12 2 6 2 18 0 25 -3 6 -5 1 -5 -13z"/>
<path d="M5142 5653 c-1 -23 -5 -50 -8 -60 -5 -17 -5 -17 6 0 6 9 9 36 7 60
l-4 42 -1 -42z"/>
<path d="M3162 5460 c0 -14 2 -19 5 -12 2 6 2 18 0 25 -3 6 -5 1 -5 -13z"/>
<path d="M4961 5374 c0 -11 3 -14 6 -6 3 7 2 16 -1 19 -3 4 -6 -2 -5 -13z"/>
<path d="M4812 5292 c-11 -25 -11 -25 4 -10 9 9 15 21 13 27 -2 6 -10 -2 -17
-17z"/>
<path d="M4470 4990 c8 -5 24 -10 34 -10 26 0 18 6 -19 14 -22 5 -26 4 -15 -4z"/>
<path d="M4340 4796 c0 -2 7 -7 16 -10 8 -3 12 -2 9 4 -6 10 -25 14 -25 6z"/>
<path d="M5077 4549 c7 -7 15 -10 18 -7 3 3 -2 9 -12 12 -14 6 -15 5 -6 -5z"/>
<path d="M5070 4520 c8 -5 20 -10 25 -10 6 0 3 5 -5 10 -8 5 -19 10 -25 10 -5
0 -3 -5 5 -10z"/>
<path d="M4170 3941 c0 -6 4 -13 10 -16 6 -3 7 1 4 9 -7 18 -14 21 -14 7z"/>
<path d="M4246 3767 c3 -10 9 -15 12 -12 3 3 0 11 -7 18 -10 9 -11 8 -5 -6z"/>
<path d="M4271 3634 c0 -11 3 -14 6 -6 3 7 2 16 -1 19 -3 4 -6 -2 -5 -13z"/>
<path d="M4301 3640 c0 -8 4 -22 9 -30 12 -18 12 -2 0 25 -6 13 -9 15 -9 5z"/>
<path d="M4365 3479 c-4 -6 -5 -12 -2 -15 2 -3 7 2 10 11 7 17 1 20 -8 4z"/>
<path d="M4374 3449 c-5 -8 -3 -9 6 -4 10 6 12 4 7 -8 -3 -9 -3 -18 1 -21 4
-3 8 4 9 14 2 23 -13 35 -23 19z"/>
<path d="M4425 3349 c-4 -6 -8 -23 -9 -39 -2 -28 14 -34 34 -14 13 13 2 46
-13 37 -6 -4 -8 0 -4 10 7 19 2 23 -8 6z m18 -44 c-3 -9 -8 -14 -10 -11 -3 3
-2 9 2 15 9 16 15 13 8 -4z"/>
<path d="M4450 3270 c0 -5 7 -10 15 -10 8 0 15 5 15 10 0 6 -7 10 -15 10 -8 0
-15 -4 -15 -10z"/>
<path d="M4292 3095 c6 -14 15 -25 20 -25 5 0 1 11 -8 25 -9 14 -18 25 -20 25
-2 0 2 -11 8 -25z"/>
<path d="M4330 3025 c0 -8 4 -15 10 -15 5 0 7 7 4 15 -4 8 -8 15 -10 15 -2 0
-4 -7 -4 -15z"/>
<path d="M4370 3000 c11 -22 21 -40 23 -40 5 0 1 69 -5 75 -4 4 -5 -4 -2 -17
l5 -23 -12 23 c-7 12 -16 22 -21 22 -5 0 1 -18 12 -40z"/>
<path d="M5848 2313 c7 -3 16 -2 19 1 4 3 -2 6 -13 5 -11 0 -14 -3 -6 -6z"/>
<path d="M5742 2268 c-16 -16 -15 -28 3 -28 8 0 15 9 15 20 0 23 -2 24 -18 8z"/>
<path d="M6510 3450 c-9 -6 -10 -10 -3 -10 6 0 15 5 18 10 8 12 4 12 -15 0z"/>
<path d="M4278 5783 c7 -3 16 -2 19 1 4 3 -2 6 -13 5 -11 0 -14 -3 -6 -6z"/>
<path d="M9071 5384 c0 -11 3 -14 6 -6 3 7 2 16 -1 19 -3 4 -6 -2 -5 -13z"/>
<path d="M9112 5355 c0 -16 2 -22 5 -12 2 9 2 23 0 30 -3 6 -5 -1 -5 -18z"/>
<path d="M9113 5240 c0 -25 2 -35 4 -22 2 12 2 32 0 45 -2 12 -4 2 -4 -23z"/>
<path d="M8862 4750 c0 -14 2 -19 5 -12 2 6 2 18 0 25 -3 6 -5 1 -5 -13z"/>
<path d="M4490 3158 c0 -9 5 -20 10 -23 13 -8 13 5 0 25 -8 13 -10 13 -10 -2z"/>
<path d="M8332 2938 c-16 -16 -15 -25 1 -25 7 0 13 9 13 19 0 21 1 21 -14 6z"/>
<path d="M8246 2853 c-11 -29 9 -34 34 -8 13 14 19 25 13 25 -6 0 -13 -7 -17
-15 -3 -8 -11 -15 -17 -15 -8 0 -8 4 1 15 7 9 8 15 2 15 -5 0 -13 -8 -16 -17z"/>
<path d="M7854 2532 c3 -6 0 -13 -6 -16 -7 -3 -4 -5 6 -3 21 2 25 19 5 26 -6
2 -9 -1 -5 -7z"/>
<path d="M3520 1670 c-12 -8 -9 -10 12 -10 15 0 30 5 33 10 8 13 -25 13 -45 0z"/>
<path d="M4168 1433 c7 -3 16 -2 19 1 4 3 -2 6 -13 5 -11 0 -14 -3 -6 -6z"/>
<path d="M4511 1334 c13 -6 29 -10 36 -7 24 9 13 18 -23 19 -34 1 -34 0 -13
-12z"/>
</g>
</svg>
